<svg width="22" height="22" viewBox="0 0 22 22" fill="none" xmlns="http://www.w3.org/2000/svg">
<path d="M9.99514 10.0495C9.99658 9.74298 10.0981 9.44532 10.2842 9.2018C10.535 8.87894 10.8211 8.58511 11.1372 8.32576C11.4223 8.08052 11.6838 7.80898 11.9181 7.51474C12.0654 7.30804 12.1417 7.05914 12.1356 6.80538C12.1391 6.65002 12.1113 6.49555 12.0537 6.35118C11.9962 6.20682 11.9101 6.07553 11.8007 5.96517C11.6913 5.85482 11.5608 5.76767 11.4169 5.7089C11.273 5.65014 11.1188 5.62096 10.9634 5.62314C10.6532 5.62013 10.3535 5.73485 10.1246 5.94414C9.85793 6.20107 9.66347 6.52353 9.56067 6.87927L8.28857 6.32423C8.45035 5.70481 8.80777 5.15416 9.30767 4.75421C9.80089 4.38337 10.405 4.19024 11.0219 4.20624C11.4912 4.20136 11.9547 4.30899 12.3738 4.52013C12.7733 4.72072 13.1106 5.0262 13.3497 5.40385C13.5922 5.78839 13.7179 6.235 13.7115 6.68953C13.7167 7.0989 13.6065 7.50146 13.3935 7.8511C13.1243 8.26252 12.7981 8.63369 12.4246 8.95354C12.1395 9.19541 11.8713 9.45648 11.6219 9.73498C11.4788 9.89882 11.3993 10.1086 11.3979 10.3261C11.4019 10.4594 11.4217 10.5917 11.457 10.7204H10.1565C10.0551 10.5109 10.0001 10.2821 9.99514 10.0495ZM10.8623 14.1684C10.7138 14.1721 10.5661 14.1456 10.4282 14.0905C10.2903 14.0353 10.1651 13.9526 10.0602 13.8474C9.95344 13.7432 9.86942 13.618 9.81337 13.4798C9.75732 13.3415 9.73046 13.1932 9.73446 13.0441C9.73094 12.8939 9.758 12.7445 9.81399 12.6051C9.86998 12.4657 9.95374 12.3391 10.0602 12.2331C10.1641 12.1261 10.289 12.0417 10.427 11.9851C10.565 11.9286 10.7132 11.9011 10.8623 11.9044C11.0123 11.9012 11.1614 11.9286 11.3005 11.9849C11.4396 12.0412 11.5658 12.1252 11.6714 12.2318C11.777 12.3384 11.8597 12.4654 11.9146 12.6051C11.9696 12.7447 11.9955 12.8941 11.9908 13.0441C11.9947 13.1931 11.9679 13.3414 11.912 13.4797C11.856 13.6179 11.7722 13.7431 11.6656 13.8474C11.5605 13.9526 11.435 14.0352 11.2969 14.0904C11.1588 14.1456 11.011 14.1721 10.8623 14.1684V14.1684Z" fill="#7B7B7B"/>
<path d="M1.87132 20.9308C1.7434 20.9307 1.61707 20.9025 1.50128 20.8481C1.3509 20.7787 1.22365 20.6675 1.13476 20.5278C1.04587 20.3881 0.999095 20.2257 1.00001 20.0601V3.1115C1.00064 2.55169 1.2233 2.01496 1.61915 1.61912C2.01499 1.22327 2.55169 1.00063 3.1115 1H18.8885C19.4483 1.00063 19.985 1.22327 20.3809 1.61912C20.7767 2.01496 20.9994 2.55169 21 3.1115V15.1798C20.9992 15.7395 20.7765 16.2761 20.3807 16.6718C19.9848 17.0675 19.4482 17.2901 18.8885 17.2907H7.08265C6.72893 17.2908 6.38647 17.4151 6.11498 17.6418L2.42639 20.7275C2.27089 20.8582 2.07445 20.9301 1.87132 20.9308V20.9308ZM3.1115 2.18224C2.86514 2.18255 2.62897 2.28055 2.45477 2.45475C2.28057 2.62895 2.18257 2.86514 2.18226 3.1115V19.3898L5.35657 16.7351C5.84089 16.3307 6.4517 16.1089 7.08265 16.1085H18.8885C19.1348 16.1083 19.371 16.0104 19.5452 15.8363C19.7194 15.6622 19.8174 15.4261 19.8178 15.1798V3.1115C19.8174 2.86514 19.7194 2.62895 19.5452 2.45475C19.371 2.28055 19.1349 2.18255 18.8885 2.18224H3.1115Z" fill="#7B7B7B" stroke="#7B7B7B"/>
</svg>
