<svg width="22" height="24" viewBox="0 0 22 24" fill="none" xmlns="http://www.w3.org/2000/svg">
<path d="M0.976733 20.0175L0.0162502 19.9261L0.976733 20.0175ZM21.0233 20.0175L21.9838 19.9261L21.0233 20.0175ZM20.0432 9.72598L19.0826 9.81746L20.0432 9.72598ZM1.95687 9.72598L2.91736 9.81746L1.95687 9.72598ZM4.88939 11.2564C4.88939 11.7892 5.32137 12.2212 5.85422 12.2212C6.38709 12.2212 6.81905 11.7892 6.81905 11.2564H4.88939ZM15.1809 11.2564C15.1809 11.7892 15.6129 12.2212 16.1458 12.2212C16.6786 12.2212 17.1106 11.7892 17.1106 11.2564H15.1809ZM4.51816 8.36187H17.4819V6.4322H4.51816V8.36187ZM19.0826 9.81746L20.0627 20.109L21.9838 19.9261L21.0036 9.63452L19.0826 9.81746ZM18.462 21.8695H3.53802V23.7992H18.462V21.8695ZM1.93722 20.109L2.91736 9.81746L0.99639 9.63452L0.0162502 19.9261L1.93722 20.109ZM3.53802 21.8695C2.58969 21.8695 1.84731 21.053 1.93722 20.109L0.0162502 19.9261C-0.181553 22.003 1.45169 23.7992 3.53802 23.7992V21.8695ZM20.0627 20.109C20.1526 21.053 19.4102 21.8695 18.462 21.8695V23.7992C20.5484 23.7992 22.1815 22.003 21.9838 19.9261L20.0627 20.109ZM17.4819 8.36187C18.3108 8.36187 19.004 8.99214 19.0826 9.81746L21.0036 9.63452C20.8307 7.81883 19.3057 6.4322 17.4819 6.4322V8.36187ZM4.51816 6.4322C2.69427 6.4322 1.16931 7.81883 0.99639 9.63452L2.91736 9.81746C2.99596 8.99214 3.68913 8.36187 4.51816 8.36187V6.4322ZM6.81905 6.11059C6.81905 3.80152 8.69097 1.92966 11 1.92966V0C7.6252 0 4.88939 2.73581 4.88939 6.11059H6.81905ZM11 1.92966C13.309 1.92966 15.1809 3.80152 15.1809 6.11059H17.1106C17.1106 2.73581 14.3747 0 11 0V1.92966ZM4.88939 6.11059V11.2564H6.81905V6.11059H4.88939ZM15.1809 6.11059V11.2564H17.1106V6.11059H15.1809Z" fill="#469544"/>
<line x1="11" y1="13" x2="11" y2="19" stroke="#469544" stroke-width="2" stroke-linecap="round"/>
<path d="M14 16H8" stroke="#469544" stroke-width="2" stroke-linecap="round"/>
</svg>
