<svg width="22" height="23" viewBox="0 0 22 23" fill="none" xmlns="http://www.w3.org/2000/svg">
<path d="M0.976733 19.3454L0.0162502 19.257L0.976733 19.3454ZM21.0233 19.3454L21.9838 19.257L21.0233 19.3454ZM20.0432 9.39939L19.0826 9.4878L20.0432 9.39939ZM1.95687 9.39939L2.91736 9.4878L1.95687 9.39939ZM4.88939 10.8784C4.88939 11.3933 5.32137 11.8108 5.85422 11.8108C6.38709 11.8108 6.81905 11.3933 6.81905 10.8784H4.88939ZM15.1809 10.8784C15.1809 11.3933 15.6129 11.8108 16.1458 11.8108C16.6786 11.8108 17.1106 11.3933 17.1106 10.8784H15.1809ZM4.51816 8.08108H17.4819V6.21622H4.51816V8.08108ZM19.0826 9.4878L20.0627 19.4338L21.9838 19.257L21.0036 9.311L19.0826 9.4878ZM18.462 21.1351H3.53802V23H18.462V21.1351ZM1.93722 19.4338L2.91736 9.4878L0.99639 9.311L0.0162502 19.257L1.93722 19.4338ZM3.53802 21.1351C2.58969 21.1351 1.84731 20.346 1.93722 19.4338L0.0162502 19.257C-0.181553 21.2642 1.45169 23 3.53802 23V21.1351ZM20.0627 19.4338C20.1526 20.346 19.4102 21.1351 18.462 21.1351V23C20.5484 23 22.1815 21.2642 21.9838 19.257L20.0627 19.4338ZM17.4819 8.08108C18.3108 8.08108 19.004 8.6902 19.0826 9.4878L21.0036 9.311C20.8307 7.55628 19.3057 6.21622 17.4819 6.21622V8.08108ZM4.51816 6.21622C2.69427 6.21622 1.16931 7.55628 0.99639 9.311L2.91736 9.4878C2.99596 8.6902 3.68913 8.08108 4.51816 8.08108V6.21622ZM6.81905 5.90541C6.81905 3.67387 8.69097 1.86486 11 1.86486V0C7.6252 0 4.88939 2.64394 4.88939 5.90541H6.81905ZM11 1.86486C13.309 1.86486 15.1809 3.67387 15.1809 5.90541H17.1106C17.1106 2.64394 14.3747 0 11 0V1.86486ZM4.88939 5.90541V10.8784H6.81905V5.90541H4.88939ZM15.1809 5.90541V10.8784H17.1106V5.90541H15.1809Z" fill="#9B9B9B"/>
<line x1="11" y1="12.597" x2="11" y2="18.3284" stroke="#9B9B9B" stroke-width="2" stroke-linecap="round"/>
<path d="M14 15.4628H8" stroke="#9B9B9B" stroke-width="2" stroke-linecap="round"/>
</svg>
