<svg width="16" height="15" viewBox="0 0 16 15" fill="none" xmlns="http://www.w3.org/2000/svg">
<path d="M6.75 13H0.5V14.25H6.75V13Z" fill="#0089FF"/>
<path d="M6.75 9.25H0.5V10.5H6.75V9.25Z" fill="#0089FF"/>
<path d="M14.25 6.75H1.75C1.41848 6.75 1.10054 6.6183 0.866116 6.38388C0.631696 6.14946 0.5 5.83152 0.5 5.5V1.75C0.5 1.41848 0.631696 1.10054 0.866116 0.866116C1.10054 0.631696 1.41848 0.5 1.75 0.5H14.25C14.5815 0.5 14.8995 0.631696 15.1339 0.866116C15.3683 1.10054 15.5 1.41848 15.5 1.75V5.5C15.5 5.83152 15.3683 6.14946 15.1339 6.38388C14.8995 6.6183 14.5815 6.75 14.25 6.75ZM1.75 1.75V5.5H14.25V1.75H1.75Z" fill="#0089FF"/>
<path d="M14.25 15.5H10.5C10.1685 15.5 9.85054 15.3683 9.61612 15.1339C9.3817 14.8995 9.25 14.5815 9.25 14.25V10.5C9.25 10.1685 9.3817 9.85054 9.61612 9.61612C9.85054 9.3817 10.1685 9.25 10.5 9.25H14.25C14.5815 9.25 14.8995 9.3817 15.1339 9.61612C15.3683 9.85054 15.5 10.1685 15.5 10.5V14.25C15.5 14.5815 15.3683 14.8995 15.1339 15.1339C14.8995 15.3683 14.5815 15.5 14.25 15.5ZM10.5 10.5V14.25H14.25V10.5H10.5Z" fill="#0089FF"/>
</svg>
