<svg width="21" height="22" viewBox="0 0 21 22" fill="none" xmlns="http://www.w3.org/2000/svg">
<path d="M0.892379 18.2887L0.0148468 18.2052L0.892379 18.2887ZM19.2077 18.2887L20.0852 18.2052L19.2077 18.2887ZM18.3122 8.88601L17.4345 8.96959L18.3122 8.88601ZM1.78787 8.88601L2.6654 8.96959L1.78787 8.88601ZM4.46713 10.2842C4.46713 10.771 4.86179 11.1657 5.34863 11.1657C5.83548 11.1657 6.23014 10.771 6.23014 10.2842H4.46713ZM13.8699 10.2842C13.8699 10.771 14.2645 11.1657 14.7514 11.1657C15.2382 11.1657 15.6329 10.771 15.6329 10.2842H13.8699ZM4.12796 7.6397H15.9721V5.8767H4.12796V7.6397ZM17.4345 8.96959L18.33 18.3723L20.0852 18.2052L19.1897 8.80244L17.4345 8.96959ZM16.8676 19.9808H3.23247V21.7438H16.8676V19.9808ZM1.76991 18.3723L2.6654 8.96959L0.910338 8.80244L0.0148468 18.2052L1.76991 18.3723ZM3.23247 19.9808C2.36603 19.9808 1.68777 19.2348 1.76991 18.3723L0.0148468 18.2052C-0.165873 20.1028 1.32631 21.7438 3.23247 21.7438V19.9808ZM18.33 18.3723C18.4122 19.2348 17.7339 19.9808 16.8676 19.9808V21.7438C18.7737 21.7438 20.2658 20.1028 20.0852 18.2052L18.33 18.3723ZM15.9721 7.6397C16.7295 7.6397 17.3627 8.21555 17.4345 8.96959L19.1897 8.80244C19.0317 7.14357 17.6383 5.8767 15.9721 5.8767V7.6397ZM4.12796 5.8767C2.46159 5.8767 1.06833 7.14357 0.910338 8.80244L2.6654 8.96959C2.73721 8.21555 3.37052 7.6397 4.12796 7.6397V5.8767ZM6.23014 5.58286C6.23014 3.47321 7.94038 1.76301 10.05 1.76301V0C6.96666 0 4.46713 2.49954 4.46713 5.58286H6.23014ZM10.05 1.76301C12.1596 1.76301 13.8699 3.47321 13.8699 5.58286H15.6329C15.6329 2.49954 13.1333 0 10.05 0V1.76301ZM4.46713 5.58286V10.2842H6.23014V5.58286H4.46713ZM13.8699 5.58286V10.2842H15.6329V5.58286H13.8699Z" fill="#686767"/>
</svg>
