<svg width="18" height="21" viewBox="0 0 18 21" fill="none" xmlns="http://www.w3.org/2000/svg">
<path d="M8.28014 13.0227C8.31454 13.3553 8.59527 13.6029 8.92255 13.6029C8.9448 13.6029 8.96722 13.6018 8.9898 13.5995C9.34503 13.5628 9.60325 13.245 9.56652 12.8898L9.26838 10.0043C9.23165 9.64895 8.91402 9.3909 8.55871 9.42754C8.20349 9.46427 7.94527 9.78198 7.982 10.1372L8.28014 13.0227Z" fill="white"/>
<path d="M12.3268 13.5995C12.3494 13.6018 12.3718 13.6029 12.394 13.6029C12.7212 13.6029 13.0021 13.3553 13.0365 13.0227L13.3346 10.1371C13.3713 9.78181 13.1131 9.46409 12.7579 9.42745C12.4026 9.39133 12.0849 9.64895 12.0482 10.0042L11.7501 12.8897C11.7133 13.245 11.9715 13.5628 12.3268 13.5995Z" fill="white"/>
<path d="M7.32041 16.4099C6.21673 16.4099 5.31885 17.3078 5.31885 18.4115C5.31885 19.5154 6.21673 20.4136 7.32041 20.4136C8.4241 20.4136 9.32207 19.5154 9.32207 18.4115C9.32207 17.3078 8.4241 16.4099 7.32041 16.4099ZM7.32041 19.1202C6.92984 19.1202 6.61213 18.8022 6.61213 18.4114C6.61213 18.0208 6.92984 17.7031 7.32041 17.7031C7.71098 17.7031 8.02879 18.0208 8.02879 18.4114C8.02879 18.8022 7.71098 19.1202 7.32041 19.1202Z" fill="white"/>
<path d="M13.9968 16.4099C12.8931 16.4099 11.9951 17.3078 11.9951 18.4115C11.9951 19.5154 12.8931 20.4136 13.9968 20.4136C15.1005 20.4136 15.9986 19.5154 15.9986 18.4115C15.9986 17.3078 15.1005 16.4099 13.9968 16.4099ZM13.9968 19.1202C13.6062 19.1202 13.2884 18.8022 13.2884 18.4114C13.2884 18.0208 13.6062 17.7031 13.9968 17.7031C14.3874 17.7031 14.7053 18.0208 14.7053 18.4114C14.7053 18.8022 14.3874 19.1202 13.9968 19.1202Z" fill="white"/>
<path d="M17.8649 7.27028C17.7424 7.11189 17.5535 7.01912 17.3533 7.01912H4.46406L3.92286 4.93772C3.84871 4.65276 3.59144 4.45386 3.297 4.45386H0.64664C0.289522 4.45386 0 4.74338 0 5.1005C0 5.45761 0.289522 5.74714 0.64664 5.74714H2.79702L3.33339 7.80966C3.33632 7.82259 3.33968 7.83544 3.34339 7.84811L5.33935 15.5235C5.4135 15.8084 5.67077 16.0073 5.96521 16.0073H15.3522C15.6466 16.0073 15.9039 15.8084 15.978 15.5235L17.9793 7.82846C18.0295 7.63481 17.9873 7.42857 17.8649 7.27028ZM14.8521 14.7141H6.46511L4.80031 8.3124H16.5169L14.8521 14.7141Z" fill="white"/>
<path d="M7.98404 3.3857L11.7712 3.38587L10.7824 4.37471C10.5299 4.62725 10.5299 5.0367 10.7824 5.28915C10.9087 5.41537 11.0742 5.47857 11.2397 5.47857C11.4051 5.47857 11.5707 5.41546 11.6969 5.28915L13.7888 3.19722C14.0413 2.94469 14.0413 2.53524 13.7888 2.28279L11.6954 0.189401C11.4429 -0.0631336 11.0334 -0.0631336 10.7809 0.189401C10.5284 0.441935 10.5284 0.851388 10.7809 1.10392L11.7696 2.09268L7.98404 2.09251C7.62692 2.09251 7.3374 2.38203 7.3374 2.73914C7.33749 3.09618 7.62692 3.3857 7.98404 3.3857Z" fill="white"/>
</svg>
