<svg width="25" height="17" viewBox="0 0 25 17" fill="none" xmlns="http://www.w3.org/2000/svg">
<path d="M23.7361 0H1.26389C0.565877 0 0 0.565877 0 1.26389V2.70262H25V1.26389C25 0.565877 24.4341 0 23.7361 0Z" fill="#0089FF"/>
<path d="M0 14.8085C0 15.5065 0.565877 16.0724 1.26389 16.0724H23.7361C24.4341 16.0724 24.9999 15.5065 24.9999 14.8085V6.39746H0V14.8085ZM10.7421 13.2508H9.15408C8.70045 13.2508 8.3327 12.883 8.3327 12.4294C8.3327 11.9758 8.70045 11.608 9.15408 11.608H10.7421C11.1957 11.608 11.5635 11.9758 11.5635 12.4294C11.5635 12.883 11.1957 13.2508 10.7421 13.2508ZM19.0816 11.608H21.6553C22.1089 11.608 22.4767 11.9758 22.4767 12.4294C22.4767 12.883 22.1089 13.2508 21.6553 13.2508H19.0816C18.628 13.2508 18.2602 12.883 18.2602 12.4294C18.2602 11.9758 18.628 11.608 19.0816 11.608ZM16.6013 12.4294C16.6013 12.883 16.2335 13.2508 15.7799 13.2508H14.1919C13.7383 13.2508 13.3705 12.883 13.3705 12.4294C13.3705 11.9758 13.7383 11.608 14.1919 11.608H15.7799C16.2335 11.608 16.6013 11.9758 16.6013 12.4294ZM3.22387 8.48678H15.4898C15.9434 8.48678 16.3112 8.85454 16.3112 9.30816C16.3112 9.76178 15.9434 10.1295 15.4898 10.1295H3.22387C2.77025 10.1295 2.40249 9.76178 2.40249 9.30816C2.40249 8.85454 2.77025 8.48678 3.22387 8.48678ZM3.22387 11.608H5.79753C6.25115 11.608 6.61891 11.9758 6.61891 12.4294C6.61891 12.883 6.25121 13.2508 5.79753 13.2508H3.22387C2.77025 13.2508 2.40249 12.883 2.40249 12.4294C2.40249 11.9758 2.77025 11.608 3.22387 11.608Z" fill="#0089FF"/>
</svg>
