<svg width="56" height="60" viewBox="0 0 56 60" fill="none" xmlns="http://www.w3.org/2000/svg">
<path d="M54 22H2C0.9 22 0 22.9 0 24V54C0 57.3 2.7 60 6 60H50C53.3 60 56 57.3 56 54V24C56 22.9 55.1 22 54 22ZM18 50C18 51.1 17.1 52 16 52H12C10.9 52 10 51.1 10 50V46C10 44.9 10.9 44 12 44H16C17.1 44 18 44.9 18 46V50ZM32 50C32 51.1 31.1 52 30 52H26C24.9 52 24 51.1 24 50V46C24 44.9 24.9 44 26 44H30C31.1 44 32 44.9 32 46V50ZM32 36C32 37.1 31.1 38 30 38H26C24.9 38 24 37.1 24 36V32C24 30.9 24.9 30 26 30H30C31.1 30 32 30.9 32 32V36ZM46 36C46 37.1 45.1 38 44 38H40C38.9 38 38 37.1 38 36V32C38 30.9 38.9 30 40 30H44C45.1 30 46 30.9 46 32V36ZM50 6H45V4C45 1.8 43.2 0 41 0C38.8 0 37 1.8 37 4V6H19V4C19 1.8 17.2 0 15 0C12.8 0 11 1.8 11 4V6H6C2.7 6 0 8.7 0 12V14C0 15.1 0.9 16 2 16H54C55.1 16 56 15.1 56 14V12C56 8.7 53.3 6 50 6Z" fill="#0089FF"/>
</svg>
