<svg width="8" height="13" viewBox="0 0 8 13" fill="none" xmlns="http://www.w3.org/2000/svg">
<path d="M6.32307 2.5937V0L4.8543 0.377649L3.98629 0.098657L3.11828 0.377649L1.6495 0V2.5937H0V12.4907H8V2.5937H6.32307ZM2.47426 1.06364L3.14373 1.23582L3.98629 0.96498L4.82885 1.23582L5.49832 1.06364V3.41843H2.47426V1.06364ZM7.17525 11.6659H0.824752V5.89271H7.17525V11.6659ZM7.17525 5.06796H0.824752V3.41845H1.6495V4.2432H6.32307V3.41845H7.17522V5.06796H7.17525Z" fill="white"/>
<path d="M2.74858 6.71753H1.92383V7.54228H2.74858V6.71753Z" fill="white"/>
<path d="M4.39799 6.71777H3.57324V7.54253H4.39799V6.71777Z" fill="white"/>
<path d="M2.74858 8.36694H1.92383V9.1917H2.74858V8.36694Z" fill="white"/>
<path d="M4.39799 8.36694H3.57324V9.1917H4.39799V8.36694Z" fill="white"/>
<path d="M2.74858 10.0166H1.92383V10.8414H2.74858V10.0166Z" fill="white"/>
<path d="M4.39799 10.0166H3.57324V10.8414H4.39799V10.0166Z" fill="white"/>
<path d="M6.04887 6.71777H5.22412V7.54253H6.04887V6.71777Z" fill="white"/>
<path d="M6.04887 8.36694H5.22412V10.8412H6.04887V8.36694Z" fill="white"/>
</svg>
