<svg width="21" height="21" viewBox="0 0 21 21" fill="none" xmlns="http://www.w3.org/2000/svg">
<path d="M18.1925 9.88809L11.0681 4.01081C10.7384 3.73875 10.2624 3.73875 9.93261 4.01081L2.80816 9.88809C2.6026 10.0576 2.48364 10.3099 2.48364 10.5763V19.4439C2.48364 19.9368 2.88299 20.3361 3.37583 20.3361H17.6246C18.1175 20.3361 18.5168 19.9368 18.5168 19.4439V10.5763C18.517 10.3099 18.3981 10.0576 18.1925 9.88809ZM11.4437 18.5517H9.55706V13.6121H11.4436V18.5517H11.4437ZM16.7327 18.5517H13.2281V12.7199C13.2281 12.2271 12.8288 11.8277 12.3359 11.8277H8.66487C8.17202 11.8277 7.77267 12.2271 7.77267 12.7199V18.5517H4.26815V10.9969L10.5004 5.85562L16.7327 10.9969V18.5517Z" fill="#7B7B7B"/>
<path d="M20.6655 8.09824C18.6782 6.50634 16.8043 4.98414 14.7698 3.30884C14.162 2.7627 13.5232 2.24559 12.9051 1.74525C12.3 1.25537 11.6741 0.748727 11.0968 0.229115C10.7573 -0.0763716 10.2425 -0.0763716 9.90306 0.229115C9.32564 0.748727 8.69991 1.25537 8.09477 1.74525C7.47678 2.24547 6.83797 2.7627 6.23009 3.30884C4.19566 4.98426 2.32181 6.50634 0.334488 8.09824C-0.0501062 8.40623 -0.112203 8.96783 0.195901 9.35231C0.503885 9.73678 1.06561 9.799 1.44997 9.4909C3.44871 7.89007 5.33278 6.35942 7.37947 4.67389C7.38958 4.66569 7.39946 4.65712 7.40921 4.64832C7.98664 4.12871 8.61236 3.62206 9.2175 3.13219C9.64088 2.78959 10.0739 2.43901 10.5 2.07667C10.9261 2.43901 11.3592 2.78959 11.7825 3.13219C12.3876 3.62206 13.0135 4.12871 13.5908 4.64832C13.6005 4.65712 13.6104 4.66569 13.6205 4.67389C15.6671 6.35942 17.5513 7.89007 19.55 9.4909C19.7147 9.6227 19.9115 9.6867 20.1072 9.6867C20.3687 9.6867 20.6279 9.57226 20.8041 9.35219C21.1122 8.96783 21.0501 8.40623 20.6655 8.09824Z" fill="#7B7B7B"/>
</svg>
