<svg width="22" height="23" viewBox="0 0 22 23" fill="none" xmlns="http://www.w3.org/2000/svg">
<path d="M18.3743 18.5908L20.7757 17.3901L14.2432 14.9834L16.6498 21.516L17.8506 19.1145L20.3679 21.6319C20.4402 21.7041 20.535 21.7404 20.6298 21.7404C20.7246 21.7404 20.8194 21.7041 20.8917 21.6319C21.0365 21.4871 21.0365 21.253 20.8917 21.1082L18.3743 18.5908ZM15.4932 16.2334L18.9128 17.4934L17.4728 18.213L16.7532 19.653L15.4932 16.2334Z" fill="white" stroke="white" stroke-width="0.5"/>
<path d="M11.0003 6.18532H17.6669C17.8717 6.18532 18.0373 6.01976 18.0373 5.81495C18.0373 5.61013 17.8717 5.44458 17.6669 5.44458H11.0003C10.7954 5.44458 10.6299 5.61013 10.6299 5.81495C10.6299 6.01976 10.7954 6.18532 11.0003 6.18532Z" fill="white" stroke="white" stroke-width="0.5"/>
<path d="M11.0003 11.3704H17.6669C17.8717 11.3704 18.0373 11.2048 18.0373 11C18.0373 10.7952 17.8717 10.6296 17.6669 10.6296H11.0003C10.7954 10.6296 10.6299 10.7952 10.6299 11C10.6299 11.2048 10.7954 11.3704 11.0003 11.3704Z" fill="white" stroke="white" stroke-width="0.5"/>
<path d="M8.62214 3.68177C8.4677 3.54917 8.23288 3.56584 8.10029 3.72177L5.78623 6.42101L4.37068 5.35954C4.20772 5.23694 3.9755 5.26954 3.85253 5.43361C3.72957 5.59694 3.76291 5.82916 3.92661 5.95176L5.61956 7.22175C5.68586 7.27175 5.76401 7.29582 5.84141 7.29582C5.94623 7.29582 6.04993 7.25175 6.12289 7.16619L8.66251 4.20324C8.79584 4.04843 8.7777 3.8151 8.62214 3.68177Z" fill="white" stroke="white" stroke-width="0.5"/>
<path d="M8.62214 8.86685C8.4677 8.73389 8.23288 8.7513 8.10029 8.90685L5.78623 11.6061L4.37068 10.5446C4.20772 10.422 3.9755 10.4546 3.85253 10.6187C3.72957 10.782 3.76291 11.0142 3.92661 11.1368L5.61956 12.4068C5.68586 12.4568 5.76401 12.4809 5.84141 12.4809C5.94623 12.4809 6.04993 12.4368 6.12289 12.3513L8.66251 9.38833C8.79584 9.23352 8.7777 9.00018 8.62214 8.86685Z" fill="white" stroke="white" stroke-width="0.5"/>
<path d="M8.10029 14.4625L5.78623 17.1613L4.37068 16.0999C4.20772 15.9776 3.9755 16.0099 3.85253 16.1739C3.72957 16.3373 3.76291 16.5695 3.92661 16.6921L5.61956 17.9621C5.68586 18.0121 5.76401 18.0361 5.84141 18.0361C5.94623 18.0361 6.04993 17.9921 6.12289 17.9065L8.66251 14.9439C8.79585 14.7888 8.77807 14.555 8.62251 14.4221C8.4677 14.2895 8.23288 14.3065 8.10029 14.4625Z" fill="white" stroke="white" stroke-width="0.5"/>
<path d="M16.4903 1H5.50961C3.02295 1 1 3.02295 1 5.50961V16.4903C1 18.977 3.02295 20.9999 5.50961 20.9999H12.8518C13.0566 20.9999 13.2222 20.8343 13.2222 20.6295C13.2222 20.4247 13.0566 20.2592 12.8518 20.2592H5.50961C3.4311 20.2592 1.74074 18.5688 1.74074 16.4903V5.50961C1.74074 3.4311 3.4311 1.74074 5.50961 1.74074H16.4903C18.5688 1.74074 20.2592 3.4311 20.2592 5.50961V14.7036C20.2592 14.9085 20.4247 15.074 20.6295 15.074C20.8343 15.074 20.9999 14.9085 20.9999 14.7036V5.50961C20.9999 3.02295 18.977 1 16.4903 1Z" fill="white" stroke="white" stroke-width="0.5"/>
</svg>
