<svg width="482" height="482" viewBox="0 0 482 482" fill="none" xmlns="http://www.w3.org/2000/svg">
<path d="M0 240.7C0 248.2 6 254.2 13.5 254.2H339.6L269.7 324.1C264.4 329.4 264.4 337.9 269.7 343.2C272.3 345.8 275.8 347.2 279.2 347.2C282.6 347.2 286.1 345.9 288.7 343.2L381.7 250.2C387 244.9 387 236.4 381.7 231.1L288.7 138.1C283.4 132.8 274.9 132.8 269.6 138.1C264.3 143.4 264.3 151.9 269.6 157.2L339.5 227.1H13.5C6 227.2 0 233.2 0 240.7Z" fill="white"/>
<path d="M382.4 0H99C44.4 0 0 44.4 0 99V157.2C0 164.7 6 170.7 13.5 170.7C21 170.7 27 164.7 27 157.2V99C27 59.3 59.3 27 99 27H382.5C422.2 27 454.5 59.3 454.5 99V382.5C454.5 422.2 422.2 454.5 382.5 454.5H99C59.3 454.5 27 422.2 27 382.5V325C27 317.5 21 311.5 13.5 311.5C6 311.5 0 317.5 0 325V382.5C0 437.1 44.4 481.5 99 481.5H382.5C437.1 481.5 481.5 437.1 481.5 382.5V99C481.4 44.4 437 0 382.4 0Z" fill="white"/>
</svg>
