<svg width="108" height="22" viewBox="0 0 108 22" fill="none" xmlns="http://www.w3.org/2000/svg">
<path d="M0.914062 17.4609C1.50977 16.9824 2.03223 16.5283 2.48145 16.0986C2.93066 15.6689 3.31641 15.1758 3.63867 14.6191C3.96094 14.0527 4.21484 13.374 4.40039 12.583C4.5957 11.792 4.73242 10.7959 4.81055 9.59473L9.13184 9.87305C9.03418 11.3477 8.85352 12.6172 8.58984 13.6816C8.32617 14.7363 7.96973 15.6787 7.52051 16.5088C7.07129 17.3389 6.51953 18.0957 5.86523 18.7793C5.2207 19.4629 4.46875 20.1416 3.60938 20.8154L0.914062 17.4609ZM20.9824 15C20.543 16.0645 19.9033 17.0557 19.0635 17.9736C18.2236 18.8916 17.1738 19.7119 15.9141 20.4346C15.6895 20.1904 15.4551 19.9219 15.2109 19.6289C14.9766 19.3457 14.7324 19.0576 14.4785 18.7646C14.2344 18.4717 13.9951 18.1885 13.7607 17.915C13.5361 17.6514 13.3311 17.4121 13.1455 17.1973C13.7119 16.9141 14.2393 16.6064 14.7275 16.2744C15.2158 15.9424 15.6602 15.5176 16.0605 15H11.8857C11.7295 14.7754 11.5537 14.3457 11.3584 13.7109C11.1729 13.0664 11.0801 12.3242 11.0801 11.4844C11.0801 10.8496 11.1729 10.1807 11.3584 9.47754C11.5537 8.77441 11.8711 8.13477 12.3105 7.55859C12.75 6.98242 13.3164 6.50391 14.0098 6.12305C14.7129 5.74219 15.5674 5.55176 16.5732 5.55176C17.4131 5.55176 18.1309 5.72754 18.7266 6.0791C19.332 6.43066 19.835 6.87012 20.2354 7.39746C20.6357 7.9248 20.9434 8.48633 21.1582 9.08203C21.3828 9.66797 21.5342 10.2002 21.6123 10.6787H22.5938V15H20.9824ZM17.6426 10.6787C17.6426 10.2979 17.4912 9.96582 17.1885 9.68262C16.8955 9.38965 16.5488 9.24316 16.1484 9.24316C15.7871 9.24316 15.4502 9.38477 15.1377 9.66797C14.835 9.94141 14.6836 10.2783 14.6836 10.6787H17.6426ZM30.3867 15C29.127 15 28.1504 14.7803 27.457 14.3408C27.291 14.3018 27.1396 14.1992 27.0029 14.0332C26.8662 14.1797 26.7246 14.2822 26.5781 14.3408C25.8262 14.7803 24.8398 15 23.6191 15H22.5938C22.4375 15 22.2812 14.9561 22.125 14.8682C21.959 14.7803 21.876 14.7021 21.876 14.6338V11.0156C21.876 10.9082 21.9688 10.8252 22.1543 10.7666C22.3301 10.708 22.4766 10.6787 22.5938 10.6787H23.6191C24 10.6787 24.2979 10.5469 24.5127 10.2832C24.7373 10.0098 24.8496 9.65332 24.8496 9.21387V7.55859H29.127V9.21387C29.127 9.5752 29.2246 9.91211 29.4199 10.2246C29.625 10.5273 29.9473 10.6787 30.3867 10.6787H31.4121V15H30.3867ZM23.1064 0.805664H30.7822V4.49707H23.1064V0.805664ZM48.5361 10.6787V15H31.4121C31.2559 15 31.0996 14.9561 30.9434 14.8682C30.7773 14.7803 30.6943 14.7021 30.6943 14.6338V11.0156C30.6943 10.9082 30.7871 10.8252 30.9727 10.7666C31.1484 10.708 31.2949 10.6787 31.4121 10.6787H48.5361ZM50.6602 0.263672H55.04V15H50.6602V0.263672ZM71.8418 15L72.6035 17.7832L71.2998 18.6328C70.9092 18.9062 70.4307 19.1895 69.8643 19.4824C69.3076 19.7754 68.707 20.0391 68.0625 20.2734C67.4277 20.5176 66.7539 20.7129 66.041 20.8594C65.3281 21.0156 64.6152 21.0938 63.9023 21.0938C63.0625 21.0938 62.2471 20.9668 61.4561 20.7129C60.665 20.4688 59.9277 20.0342 59.2441 19.4092C58.2676 18.5303 57.6523 17.5977 57.3984 16.6113C57.1543 15.6348 57.1055 14.6729 57.252 13.7256C57.3984 12.7783 57.667 11.8799 58.0576 11.0303C58.4482 10.1807 58.8145 9.44336 59.1562 8.81836L59.3027 8.55469L63.1113 10.5908L62.9648 10.8838C62.584 11.5869 62.2666 12.2168 62.0127 12.7734C61.7686 13.3203 61.6074 13.8037 61.5293 14.2236C61.4512 14.6436 61.4609 15.0098 61.5586 15.3223C61.6562 15.6445 61.8564 15.9375 62.1592 16.2012C62.4619 16.4844 62.8281 16.6602 63.2578 16.7285C63.6875 16.7969 64.1514 16.7969 64.6494 16.7285C65.1475 16.6602 65.6504 16.5381 66.1582 16.3623C66.666 16.1963 67.1445 16.001 67.5938 15.7764L67.4033 15H65.0303L65.6602 10.6787H72.6035V15H71.8418ZM72.6035 15C72.4473 15 72.291 14.9561 72.1348 14.8682C71.9688 14.7803 71.8857 14.7021 71.8857 14.6338V11.0156C71.8857 10.9082 71.9785 10.8252 72.1641 10.7666C72.3398 10.708 72.4863 10.6787 72.6035 10.6787H79.4736C79.4346 10.1025 79.3027 9.67285 79.0781 9.38965C78.9609 9.2334 78.7949 9.09668 78.5801 8.97949C78.375 8.85254 78.1309 8.78906 77.8477 8.78906H74.0977V4.64355H78.9609C79.5664 4.64355 80.1328 4.75098 80.6602 4.96582C81.1875 5.1709 81.666 5.4541 82.0957 5.81543C82.5254 6.17676 82.8867 6.61621 83.1797 7.13379C83.4727 7.6416 83.668 8.19336 83.7656 8.78906C83.8242 9.11133 83.8975 9.38965 83.9854 9.62402C84.0732 9.84863 84.1904 10.0391 84.3369 10.1953C84.4932 10.3418 84.6934 10.4541 84.9375 10.5322C85.1914 10.6104 85.5186 10.6592 85.9189 10.6787H86.5488V15H72.6035ZM79.415 21.9287C78.6729 21.9287 78.0527 21.6797 77.5547 21.1816C77.0566 20.6836 76.8076 20.0635 76.8076 19.3213C76.8076 18.5986 77.0566 17.9883 77.5547 17.4902C78.0527 16.9922 78.6729 16.7432 79.415 16.7432C80.1377 16.7432 80.748 16.9922 81.2461 17.4902C81.7441 17.9883 81.9932 18.5986 81.9932 19.3213C81.9932 20.0635 81.7441 20.6836 81.2461 21.1816C80.748 21.6797 80.1377 21.9287 79.415 21.9287ZM95.4258 7.5V11.3965C95.4258 11.9434 95.3086 12.4414 95.0742 12.8906C94.8496 13.3398 94.5615 13.7207 94.21 14.0332C93.8584 14.3359 93.4824 14.5752 93.082 14.751C92.6816 14.917 92.3154 15 91.9834 15H86.5781C86.4219 15 86.2852 14.9561 86.168 14.8682C86.041 14.7803 85.9775 14.7021 85.9775 14.6338V11.0156C85.9775 10.9082 86.0508 10.8252 86.1973 10.7666C86.334 10.708 86.4609 10.6787 86.5781 10.6787H89.5225C89.6982 10.6787 89.8789 10.6689 90.0645 10.6494C90.2598 10.6299 90.4307 10.5664 90.5771 10.459C90.7334 10.3418 90.8604 10.1807 90.958 9.97559C91.0557 9.76074 91.1045 9.46777 91.1045 9.09668V7.5H95.4258ZM86.1826 17.3145H93.873V21.0059H86.1826V17.3145ZM107.247 13.2275C107.013 13.6084 106.72 13.916 106.368 14.1504C106.017 14.375 105.636 14.5557 105.226 14.6924C104.815 14.8193 104.391 14.9023 103.951 14.9414C103.512 14.9805 103.072 15 102.633 15H97.5645V10.6787H101.637C102.32 10.6787 102.662 10.4102 102.662 9.87305C102.662 9.64844 102.584 9.35547 102.428 8.99414L100.714 5.52246L104.61 3.63281L106.5 7.5293C106.783 8.10547 107.057 8.73047 107.32 9.4043C107.594 10.0781 107.73 10.7617 107.73 11.4551C107.73 11.7578 107.696 12.0605 107.628 12.3633C107.56 12.6562 107.433 12.9443 107.247 13.2275Z" fill="#0089FF"/>
</svg>
