<svg width="20" height="21" viewBox="0 0 20 21" fill="none" xmlns="http://www.w3.org/2000/svg">
<path d="M19.1802 18.9232L19.1804 18.9234C19.4106 19.1632 19.4034 19.5447 19.1635 19.7757L19.1631 19.776C19.0466 19.8878 18.8961 19.944 18.7455 19.944C18.5882 19.944 18.4295 19.8828 18.3108 19.7589L19.1802 18.9232ZM19.1802 18.9232L14.1028 13.6428C15.3849 12.2729 16.172 10.4327 16.172 8.41181C16.172 4.18666 12.7353 0.75 8.51017 0.75C4.28502 0.75 0.848364 4.18666 0.848364 8.41181C0.848364 12.637 4.28502 16.0736 8.51017 16.0736C10.2814 16.0736 11.9138 15.4687 13.2123 14.4564L18.3104 19.7584L19.1802 18.9232ZM8.51017 14.8677C4.95046 14.8677 2.05425 11.9715 2.05425 8.41181C2.05425 4.85209 4.95046 1.95589 8.51017 1.95589C12.0699 1.95589 14.9661 4.85209 14.9661 8.41181C14.9661 11.9715 12.0695 14.8677 8.51017 14.8677Z" fill="#686767" stroke="#686767" stroke-width="0.5"/>
</svg>
