<svg width="18" height="19" viewBox="0 0 18 19" fill="none" xmlns="http://www.w3.org/2000/svg">
<mask id="path-1-inside-1_75_376" fill="white">
<path d="M17.9016 18.0965L12.6573 12.6424C13.9949 11.3009 14.8236 9.45147 14.8236 7.41181C14.8236 3.32473 11.4989 0 7.41181 0C3.32473 0 0 3.32473 0 7.41181C0 11.4989 3.32473 14.8236 7.41181 14.8236C9.20582 14.8236 10.8523 14.1823 12.1356 13.1182L17.3927 18.5856C17.4619 18.658 17.5543 18.694 17.6472 18.694C17.7354 18.694 17.8233 18.6612 17.8918 18.5955C18.0322 18.4604 18.0365 18.2369 17.9016 18.0965ZM7.41181 14.1177C3.71402 14.1177 0.705887 11.1096 0.705887 7.41181C0.705887 3.71402 3.71402 0.705887 7.41181 0.705887C11.1096 0.705887 14.1177 3.71402 14.1177 7.41181C14.1177 11.1096 11.1092 14.1177 7.41181 14.1177Z"/>
</mask>
<path d="M17.9016 18.0965L12.6573 12.6424C13.9949 11.3009 14.8236 9.45147 14.8236 7.41181C14.8236 3.32473 11.4989 0 7.41181 0C3.32473 0 0 3.32473 0 7.41181C0 11.4989 3.32473 14.8236 7.41181 14.8236C9.20582 14.8236 10.8523 14.1823 12.1356 13.1182L17.3927 18.5856C17.4619 18.658 17.5543 18.694 17.6472 18.694C17.7354 18.694 17.8233 18.6612 17.8918 18.5955C18.0322 18.4604 18.0365 18.2369 17.9016 18.0965ZM7.41181 14.1177C3.71402 14.1177 0.705887 11.1096 0.705887 7.41181C0.705887 3.71402 3.71402 0.705887 7.41181 0.705887C11.1096 0.705887 14.1177 3.71402 14.1177 7.41181C14.1177 11.1096 11.1092 14.1177 7.41181 14.1177Z" fill="#686767"/>
<path d="M17.9016 18.0965L18.6231 17.404L18.6225 17.4033L17.9016 18.0965ZM12.6573 12.6424L11.9491 11.9364L11.2577 12.6297L11.9364 13.3355L12.6573 12.6424ZM12.1356 13.1182L12.8564 12.4251L12.2125 11.7554L11.4973 12.3484L12.1356 13.1182ZM17.3927 18.5856L18.1155 17.8946L18.1135 17.8925L17.3927 18.5856ZM17.8918 18.5955L18.5838 19.3174L18.5852 19.3161L17.8918 18.5955ZM18.6225 17.4033L13.3781 11.9493L11.9364 13.3355L17.1808 18.7896L18.6225 17.4033ZM13.3654 13.3485C14.8815 11.828 15.8236 9.72794 15.8236 7.41181H13.8236C13.8236 9.17501 13.1083 10.7738 11.9491 11.9364L13.3654 13.3485ZM15.8236 7.41181C15.8236 2.77244 12.0512 -1 7.41181 -1V1C10.9466 1 13.8236 3.87701 13.8236 7.41181H15.8236ZM7.41181 -1C2.77244 -1 -1 2.77244 -1 7.41181H1C1 3.87701 3.87701 1 7.41181 1V-1ZM-1 7.41181C-1 12.0512 2.77244 15.8236 7.41181 15.8236V13.8236C3.87701 13.8236 1 10.9466 1 7.41181H-1ZM7.41181 15.8236C9.44848 15.8236 11.3187 15.0947 12.7739 13.888L11.4973 12.3484C10.3859 13.27 8.96316 13.8236 7.41181 13.8236V15.8236ZM11.4148 13.8113L16.6719 19.2788L18.1135 17.8925L12.8564 12.4251L11.4148 13.8113ZM16.6699 19.2767C16.9373 19.5564 17.2955 19.694 17.6472 19.694V17.694C17.8132 17.694 17.9865 17.7596 18.1155 17.8946L16.6699 19.2767ZM17.6472 19.694C17.9845 19.694 18.3229 19.5675 18.5838 19.3174L17.1997 17.8737C17.3236 17.7548 17.4863 17.694 17.6472 17.694V19.694ZM18.5852 19.3161C19.1236 18.7979 19.1396 17.9421 18.6231 17.404L17.1802 18.7889C16.9333 18.5317 16.9408 18.1228 17.1984 17.875L18.5852 19.3161ZM7.41181 13.1177C4.26631 13.1177 1.70589 10.5573 1.70589 7.41181H-0.294113C-0.294113 11.6619 3.16174 15.1177 7.41181 15.1177V13.1177ZM1.70589 7.41181C1.70589 4.26631 4.26631 1.70589 7.41181 1.70589V-0.294113C3.16174 -0.294113 -0.294113 3.16174 -0.294113 7.41181H1.70589ZM7.41181 1.70589C10.5573 1.70589 13.1177 4.26631 13.1177 7.41181H15.1177C15.1177 3.16174 11.6619 -0.294113 7.41181 -0.294113V1.70589ZM13.1177 7.41181C13.1177 10.5573 10.557 13.1177 7.41181 13.1177V15.1177C11.6615 15.1177 15.1177 11.6619 15.1177 7.41181H13.1177Z" fill="#686767" mask="url(#path-1-inside-1_75_376)"/>
</svg>
