<svg width="27" height="24" viewBox="0 0 27 24" fill="none" xmlns="http://www.w3.org/2000/svg">
<path d="M18.7615 12.887H15.3644C14.4347 12.887 13.6787 13.643 13.6787 14.5727V17.1779C13.6787 18.1076 14.4347 18.8637 15.3644 18.8637H18.7615C19.6912 18.8637 20.4472 18.1076 20.4472 17.1779V14.5727C20.4472 13.643 19.6912 12.887 18.7615 12.887ZM19.2212 17.1779C19.2212 17.4333 19.0118 17.6377 18.7615 17.6377H15.3644C15.109 17.6377 14.9047 17.4282 14.9047 17.1779V14.5727C14.9047 14.3173 15.1141 14.113 15.3644 14.113H18.7615C19.0169 14.113 19.2212 14.3224 19.2212 14.5727V17.1779Z" fill="#7B7B7B" stroke="#7B7B7B" stroke-width="0.6"/>
<path d="M26 8.15161C26 8.04434 25.9745 7.94217 25.9183 7.85022L22.1994 1.31161C22.0922 1.1226 21.8878 1 21.6682 1H5.32673C5.10707 1 4.90274 1.11749 4.79546 1.31161L1.08173 7.85022C1.03065 7.94217 1 8.04434 1 8.15161C1 9.61769 1.88374 10.8743 3.14548 11.4311V22.2148C3.14548 22.5519 3.42133 22.8277 3.75848 22.8277H7.14528C7.15039 22.8277 7.1555 22.8277 7.1606 22.8277H11.9113C11.9164 22.8277 11.9215 22.8277 11.9266 22.8277H23.2364C23.5736 22.8277 23.8494 22.5519 23.8494 22.2148V11.5078C23.8494 11.4822 23.8494 11.4618 23.8443 11.4414C25.1112 10.8846 26 9.6228 26 8.15161ZM5.68431 2.2311H21.3106L24.2172 7.3445H2.7828L5.68431 2.2311ZM18.7922 8.56539C18.5981 9.66878 17.6326 10.5065 16.473 10.5065C15.3134 10.5065 14.348 9.66878 14.1539 8.56539H18.7922ZM12.8512 8.56539C12.6571 9.66878 11.6917 10.5065 10.5321 10.5065C9.3725 10.5065 8.40703 9.66878 8.20781 8.56539H12.8512ZM2.26686 8.56539H6.9103C6.71618 9.66878 5.74561 10.5065 4.58602 10.5065C3.42644 10.5116 2.46097 9.66878 2.26686 8.56539ZM11.2983 21.6018H7.7736V14.9865C7.7736 14.5063 8.16183 14.113 8.64712 14.113H10.4299C10.9101 14.113 11.3034 14.5012 11.3034 14.9865V21.6018H11.2983ZM22.6234 21.6018H12.5243V14.9865C12.5243 13.832 11.5844 12.887 10.4248 12.887H8.64201C7.48754 12.887 6.5425 13.8269 6.5425 14.9865V21.6069H4.37148V11.7325C4.44299 11.7376 4.51451 11.7376 4.58602 11.7376C5.82223 11.7376 6.91541 11.1093 7.55905 10.1541C8.2027 11.1093 9.29587 11.7376 10.5321 11.7376C11.7683 11.7376 12.8564 11.1093 13.5051 10.1541C14.1488 11.1093 15.2419 11.7376 16.473 11.7376C17.7092 11.7376 18.7973 11.1093 19.4409 10.1541C20.0846 11.1093 21.1778 11.7376 22.414 11.7376C22.4855 11.7376 22.5519 11.7325 22.6234 11.7325V21.6018ZM22.414 10.5116C21.2544 10.5116 20.2889 9.67389 20.0948 8.57049H24.7383C24.539 9.66878 23.5736 10.5116 22.414 10.5116Z" fill="#7B7B7B" stroke="#7B7B7B" stroke-width="0.6"/>
</svg>
