<svg width="21" height="21" viewBox="0 0 21 21" fill="none" xmlns="http://www.w3.org/2000/svg">
<path d="M8 17.751C7.99938 17.1461 8.19831 16.5578 8.56596 16.0774C8.93361 15.5971 9.44945 15.2513 10.0335 15.0939C10.6176 14.9365 11.2373 14.9761 11.7966 15.2066C12.3559 15.4371 12.8235 15.8457 13.127 16.369C15.217 15.447 16 14 16 11.25V8.25C16 4.258 13.749 1.5 10.25 1.5C6.751 1.5 4.5 4.259 4.5 8.25V11.75C4.49974 11.9488 4.42063 12.1394 4.28004 12.28C4.13944 12.4206 3.94883 12.4997 3.75 12.5H2.75C2.02107 12.4992 1.32221 12.2094 0.806686 11.694C0.291162 11.1787 0.00105867 10.4799 0 9.751L0 8.751C0.000793561 8.02181 0.290748 7.32269 0.806272 6.80698C1.3218 6.29127 2.02081 6.00106 2.75 6H3.228C3.985 2.429 6.576 0 10.25 0C13.924 0 16.514 2.429 17.271 6H17.749C18.478 6.00106 19.1769 6.29113 19.6924 6.80662C20.2079 7.32212 20.4979 8.02098 20.499 8.75V9.75C20.4982 10.4791 20.2082 11.1781 19.6927 11.6937C19.1771 12.2092 18.4781 12.4992 17.749 12.5H17.44C17.4014 13.6844 17.004 14.8292 16.3005 15.7827C15.5969 16.7363 14.6203 17.4537 13.5 17.84C13.4882 18.5693 13.1871 19.2641 12.6631 19.7715C12.139 20.2789 11.4348 20.5573 10.7055 20.5455C9.97615 20.5337 9.28137 20.2326 8.77399 19.7086C8.26661 19.1845 7.9882 18.4803 8 17.751V17.751ZM9.5 17.751C9.5 17.9982 9.57331 18.2399 9.71066 18.4455C9.84801 18.651 10.0432 18.8112 10.2716 18.9058C10.5001 19.0005 10.7514 19.0252 10.9939 18.977C11.2363 18.9288 11.4591 18.8097 11.6339 18.6349C11.8087 18.4601 11.9278 18.2373 11.976 17.9949C12.0242 17.7524 11.9995 17.5011 11.9048 17.2726C11.8102 17.0442 11.65 16.849 11.4445 16.7117C11.2389 16.5743 10.9972 16.501 10.75 16.501C10.4186 16.5013 10.1008 16.633 9.86641 16.8674C9.63205 17.1018 9.50026 17.4196 9.5 17.751V17.751ZM17.5 11.001H17.749C18.0806 11.001 18.3987 10.8693 18.6332 10.6349C18.8678 10.4006 18.9997 10.0826 19 9.751V8.751C19 8.41939 18.8683 8.10134 18.6339 7.86676C18.3996 7.63218 18.0816 7.50027 17.75 7.5H17.5V11.001ZM1.5 8.751V9.751C1.50053 10.0823 1.63243 10.3998 1.86676 10.6339C2.1011 10.8681 2.41873 10.9997 2.75 11H3V7.5H2.75C2.41839 7.50027 2.10045 7.63218 1.86606 7.86676C1.63166 8.10134 1.5 8.41939 1.5 8.751V8.751Z" fill="#8E44AD"/>
</svg>
