<svg width="16" height="18" viewBox="0 0 16 18" fill="none" xmlns="http://www.w3.org/2000/svg">
<path d="M12.24 2.88H10.56V2.63999C10.56 1.1843 9.37568 0 7.91998 0C6.46429 0 5.27999 1.1843 5.27999 2.63999V2.88H3.6C1.61498 2.88 0 4.49494 0 6.48V7.20001H1.02248L1.98249 17.76H13.8575L14.8175 7.20001H15.84V6.48C15.84 4.49494 14.225 2.88 12.24 2.88ZM6.71997 2.63999C6.71997 1.97833 7.25828 1.43998 7.91998 1.43998C8.58165 1.43998 9.12 1.9783 9.12 2.63999V2.88H6.72V2.63999H6.71997ZM12.5425 16.32H3.29749L2.46839 7.20001H13.3715L12.5425 16.32ZM1.56336 5.75999C1.86053 4.92188 2.66133 4.31998 3.6 4.31998H5.27999H10.56H12.24C13.1786 4.31998 13.9794 4.92184 14.2766 5.75999H1.56336Z" fill="#C60000"/>
<path d="M8.64058 8.63379H7.20056V14.8738H8.64058V8.63379Z" fill="#C60000"/>
<path d="M5.75968 8.63379H4.3197V14.8738H5.75968V8.63379Z" fill="#C60000"/>
<path d="M11.52 8.63379H10.08V14.8738H11.52V8.63379Z" fill="#C60000"/>
</svg>
