<svg width="26" height="22" viewBox="0 0 26 22" fill="none" xmlns="http://www.w3.org/2000/svg">
<path d="M25.87 11.1301L22.4033 7.23011C22.36 7.14345 22.23 7.10011 22.1 7.10011H19.0667V1.46678C19.0667 1.20678 18.8933 1.03345 18.6333 1.03345H8.66667V1.90011H18.2V7.53345V14.0334H8.23334V14.9001H18.2V16.6334H9.53334V17.5001H18.6333C18.8933 17.5001 19.0667 17.3268 19.0667 17.0668V14.4668V7.96678H21.9267L24.6133 11.0001H21.6667V11.8668H25.1333V17.0668H26V11.4334C26 11.3034 25.9567 11.2168 25.87 11.1301Z" fill="#F1C40F" stroke="#F1C40F" stroke-width="0.5" stroke-linejoin="round"/>
<path d="M6.06667 15.7668C4.63667 15.7668 3.46667 16.9368 3.46667 18.3668C3.46667 19.7968 4.63667 20.9668 6.06667 20.9668C7.49667 20.9668 8.66667 19.7968 8.66667 18.3668C8.66667 16.9368 7.49667 15.7668 6.06667 15.7668ZM6.06667 20.1002C5.11333 20.1002 4.33333 19.3202 4.33333 18.3668C4.33333 17.4135 5.11333 16.6335 6.06667 16.6335C7.02 16.6335 7.8 17.4135 7.8 18.3668C7.8 19.3202 7.02 20.1002 6.06667 20.1002Z" fill="#F1C40F" stroke="#F1C40F" stroke-width="0.5" stroke-linejoin="round"/>
<path d="M22.1 15.7668C20.67 15.7668 19.5 16.9368 19.5 18.3668C19.5 19.7968 20.67 20.9668 22.1 20.9668C23.53 20.9668 24.7 19.7968 24.7 18.3668C24.7 16.9368 23.53 15.7668 22.1 15.7668ZM22.1 20.1002C21.1467 20.1002 20.3667 19.3202 20.3667 18.3668C20.3667 17.4135 21.1467 16.6335 22.1 16.6335C23.0533 16.6335 23.8333 17.4135 23.8333 18.3668C23.8333 19.3202 23.0533 20.1002 22.1 20.1002Z" fill="#F1C40F" stroke="#F1C40F" stroke-width="0.5" stroke-linejoin="round"/>
<path d="M22.9667 13.1667H21.6667V14.0334H22.9667V13.1667Z" fill="#F1C40F" stroke="#F1C40F" stroke-width="0.5" stroke-linejoin="round"/>
<path d="M6.06666 19.2333C6.54531 19.2333 6.93333 18.8453 6.93333 18.3667C6.93333 17.888 6.54531 17.5 6.06666 17.5C5.58802 17.5 5.2 17.888 5.2 18.3667C5.2 18.8453 5.58802 19.2333 6.06666 19.2333Z" fill="#F1C40F" stroke="#F1C40F" stroke-width="0.5" stroke-linejoin="round"/>
<path d="M22.1 19.2333C22.5786 19.2333 22.9667 18.8453 22.9667 18.3667C22.9667 17.888 22.5786 17.5 22.1 17.5C21.6214 17.5 21.2333 17.888 21.2333 18.3667C21.2333 18.8453 21.6214 19.2333 22.1 19.2333Z" fill="#F1C40F" stroke="#F1C40F" stroke-width="0.5" stroke-linejoin="round"/>
<path d="M2.6 16.6335H0V17.5002H2.6V16.6335Z" fill="#F1C40F" stroke="#F1C40F" stroke-width="0.5" stroke-linejoin="round"/>
<path d="M7.36667 1.03345H0V1.90011H7.36667V1.03345Z" fill="#F1C40F" stroke="#F1C40F" stroke-width="0.5" stroke-linejoin="round"/>
<path d="M9.53334 4.5H1.3V5.36667H9.53334V4.5Z" fill="#F1C40F" stroke="#F1C40F" stroke-width="0.5" stroke-linejoin="round"/>
<path d="M13 7.9668H4.76667V8.83346H13V7.9668Z" fill="#F1C40F" stroke="#F1C40F" stroke-width="0.5" stroke-linejoin="round"/>
<path d="M6.06667 11.8667H0V12.7334H6.06667V11.8667Z" fill="#F1C40F" stroke="#F1C40F" stroke-width="0.5" stroke-linejoin="round"/>
<path d="M3.46666 7.9668H1.73333V8.83346H3.46666V7.9668Z" fill="#F1C40F" stroke="#F1C40F" stroke-width="0.5" stroke-linejoin="round"/>
</svg>
