<svg width="26" height="26" viewBox="0 0 26 26" fill="none" xmlns="http://www.w3.org/2000/svg">
<path d="M25 13C25 6.38342 19.6166 1 13 1C6.38342 1 1 6.38342 1 13C1 16.4948 2.50284 19.6449 4.89498 21.8399L4.88364 21.8499L5.27287 22.178C5.29818 22.1994 5.32567 22.2169 5.35098 22.2378C5.55782 22.4093 5.77207 22.5721 5.99025 22.7296C6.06095 22.7807 6.13164 22.8317 6.20364 22.8815C6.43665 23.042 6.67578 23.1943 6.92015 23.3388C6.97338 23.3702 7.02705 23.4007 7.08073 23.4313C7.34822 23.5836 7.62138 23.7271 7.90109 23.8589C7.9216 23.8685 7.94255 23.8772 7.96305 23.8868C8.87462 24.3105 9.84771 24.6217 10.8653 24.8054C10.8919 24.8102 10.9185 24.815 10.9456 24.8198C11.2615 24.8743 11.5809 24.918 11.9043 24.9472C11.9436 24.9507 11.9828 24.9529 12.0225 24.9564C12.3446 24.983 12.6701 25 13 25C13.3268 25 13.6493 24.983 13.9696 24.9572C14.0102 24.9537 14.0508 24.9516 14.0913 24.9481C14.4121 24.9188 14.7289 24.8765 15.0417 24.8228C15.0688 24.818 15.0963 24.8132 15.1233 24.808C16.1257 24.6282 17.0848 24.3241 17.9846 23.9113C18.0177 23.896 18.0513 23.8816 18.0845 23.8659C18.3537 23.7393 18.6169 23.6028 18.8748 23.4575C18.9389 23.4212 19.0026 23.3846 19.0663 23.3471C19.3011 23.2087 19.5319 23.0643 19.7562 22.9107C19.8369 22.8557 19.9159 22.7977 19.9958 22.7401C20.1873 22.6022 20.3754 22.4599 20.5583 22.3111C20.5988 22.2784 20.6425 22.25 20.6822 22.2164L21.0815 21.8831L21.0697 21.873C23.4828 19.6772 25 16.5127 25 13ZM1.87273 13C1.87273 6.86429 6.86429 1.87273 13 1.87273C19.1357 1.87273 24.1273 6.86429 24.1273 13C24.1273 16.3063 22.6764 19.2788 20.3793 21.3184C20.2511 21.2298 20.1219 21.1504 19.9897 21.0841L16.295 19.2369C15.9633 19.0711 15.7574 18.7377 15.7574 18.3673V17.0769C15.8429 16.9713 15.9332 16.8518 16.0266 16.7204C16.5049 16.0449 16.8884 15.2935 17.1681 14.4849C17.721 14.2223 18.078 13.6716 18.078 13.0497V11.5028C18.078 11.1245 17.9392 10.7575 17.6909 10.4691V8.43258C17.7136 8.20611 17.7939 6.928 16.8692 5.87375C16.065 4.95564 14.7633 4.49091 13 4.49091C11.2367 4.49091 9.93498 4.95564 9.13076 5.87331C8.20611 6.92756 8.2864 8.20567 8.30909 8.43215V10.4687C8.06124 10.7571 7.92204 11.1241 7.92204 11.5024V13.0493C7.92204 13.5297 8.1376 13.9779 8.50676 14.2803C8.86022 15.6649 9.58764 16.713 9.85644 17.0682V18.3311C9.85644 18.6871 9.66225 19.0144 9.34938 19.1855L5.89905 21.0675C5.78909 21.1273 5.68 21.1971 5.57091 21.2752C3.30225 19.2365 1.87273 16.2823 1.87273 13ZM19.5276 22.0031C19.3748 22.1139 19.2195 22.2212 19.062 22.3238C18.9895 22.3709 18.9175 22.418 18.8438 22.4639C18.6378 22.5913 18.4284 22.7126 18.2145 22.826C18.1674 22.8509 18.1199 22.8745 18.0723 22.8989C17.5809 23.1507 17.0726 23.3671 16.5503 23.543C16.5319 23.5491 16.5136 23.5556 16.4948 23.5617C16.2212 23.6525 15.9441 23.7332 15.664 23.8026C15.6631 23.8026 15.6623 23.8031 15.6614 23.8031C15.3786 23.8729 15.0924 23.9309 14.8044 23.9785C14.7965 23.9798 14.7887 23.9815 14.7808 23.9828C14.5098 24.0269 14.2367 24.0588 13.9626 24.0828C13.9142 24.0871 13.8657 24.0902 13.8169 24.0937C13.5459 24.1142 13.2736 24.1273 13 24.1273C12.7233 24.1273 12.4476 24.1137 12.1731 24.0932C12.1255 24.0897 12.078 24.0867 12.0308 24.0823C11.7542 24.0579 11.4788 24.0252 11.2061 23.9807C11.1939 23.9785 11.1817 23.9763 11.1695 23.9741C10.5926 23.8777 10.0249 23.7359 9.472 23.5504C9.45498 23.5447 9.43753 23.5386 9.42051 23.5329C9.14604 23.4396 8.87462 23.3361 8.608 23.2218C8.60625 23.2209 8.60407 23.2201 8.60233 23.2192C8.35011 23.1105 8.10269 22.9901 7.85833 22.8631C7.82647 22.8465 7.79418 22.8308 7.76276 22.8138C7.53978 22.6947 7.3216 22.566 7.10647 22.4316C7.04276 22.3914 6.97949 22.3508 6.91665 22.3098C6.71855 22.1802 6.52305 22.0454 6.3328 21.9027C6.31316 21.8879 6.2944 21.8721 6.27476 21.8573C6.28873 21.8495 6.30269 21.8416 6.31665 21.8337L9.76698 19.9517C10.3604 19.6279 10.7292 19.007 10.7292 18.3311L10.7287 16.7593L10.6284 16.638C10.6188 16.6271 9.67535 15.4794 9.31884 13.9255L9.27913 13.7527L9.13033 13.6563C8.92044 13.5206 8.79476 13.2937 8.79476 13.0489V11.502C8.79476 11.2991 8.88073 11.1101 9.03782 10.9683L9.18182 10.8383V8.40771L9.17789 8.35055C9.17658 8.34007 9.04785 7.29062 9.78705 6.448C10.418 5.72887 11.4993 5.36364 13 5.36364C14.495 5.36364 15.5728 5.72582 16.2055 6.43971C16.9439 7.2736 16.823 8.34269 16.8221 8.35142L16.8182 10.8391L16.9622 10.9692C17.1188 11.1105 17.2052 11.2999 17.2052 11.5028V13.0497C17.2052 13.3609 16.9936 13.6432 16.6899 13.737L16.473 13.8038L16.4032 14.0198C16.1457 14.8196 15.7792 15.5584 15.314 16.2156C15.1997 16.377 15.0884 16.5201 14.9929 16.6297L14.8847 16.7532V18.3673C14.8847 19.0707 15.2756 19.7034 15.9049 20.0176L19.5996 21.8647C19.6231 21.8765 19.6463 21.8887 19.6694 21.9009C19.6227 21.9363 19.5747 21.969 19.5276 22.0031Z" fill="black" stroke="black" stroke-width="0.2"/>
</svg>
