<svg width="15" height="9" viewBox="0 0 15 9" fill="none" xmlns="http://www.w3.org/2000/svg">
<path d="M7.22546 2.60386C8.8668 2.60386 10.1974 3.93444 10.1974 5.57578C10.1974 7.21713 8.8668 8.5477 7.22546 8.5477C5.58411 8.5477 4.25354 7.21713 4.25354 5.57578C4.25354 3.93444 5.58411 2.60386 7.22546 2.60386ZM7.22546 0C10.6532 0 13.6122 2.34039 14.4332 5.62019C14.5079 5.91873 14.3265 6.22132 14.0279 6.29606C13.7294 6.37079 13.4268 6.18936 13.3521 5.89081C12.6545 3.10414 10.139 1.11447 7.22546 1.11447C4.3107 1.11447 1.79435 3.10585 1.098 5.89417C1.02343 6.19275 0.720932 6.37435 0.42235 6.29978C0.123768 6.22522 -0.0578313 5.92272 0.0167361 5.62414C0.836311 2.34241 3.79622 0 7.22546 0Z" fill="#868686"/>
</svg>
